<svg xmlns="http://www.w3.org/2000/svg" xmlns:v="https://svgstorm.com"
viewBox = "0 0 512 512"
width="512"
height="512">
<g fill="None" fill-opacity="0.0" stroke="#000000" stroke-opacity="0.00" stroke-width="0.3"><path d="
M 0.00 104.00 
C 5.52 94.50 20.30 101.49 27.08 106.92 C 33.85 112.36 50.03 112.09 49.99 124.01 C 49.95 135.93 32.85 131.93 25.92 126.08 C 19.00 120.22 6.67 118.72 0.00 112.00
L 0.00 400.00
C 8.24 390.96 18.11 400.35 25.70 405.30 C 33.29 410.26 41.27 416.10 49.00 421.00
C 49.44 410.42 48.42 397.32 49.00 387.00 C 49.58 376.68 66.27 376.97 66.78 387.22 C 67.28 397.48 66.86 410.48 67.00 421.00
C 73.88 416.22 83.87 410.12 90.25 405.25 C 96.62 400.37 111.25 389.86 115.75 401.25 C 120.26 412.63 103.88 416.18 97.77 421.77 C 91.66 427.36 80.17 432.20 74.00 438.00
C 80.81 443.28 91.51 447.61 97.70 453.30 C 103.88 458.99 119.69 462.46 115.67 473.67 C 111.65 484.89 97.06 475.31 90.77 470.23 C 84.48 465.15 74.10 459.12 67.00 455.00
C 64.01 464.50 74.51 495.92 57.99 495.99 C 41.48 496.06 51.92 464.46 49.00 455.00
C 41.08 458.95 33.30 464.97 25.77 469.77 C 18.24 474.57 8.13 484.60 0.00 475.00
L 0.00 512.00
L 451.00 512.00
C 450.16 510.90 448.54 509.96 447.00 510.00
C 443.19 497.81 445.73 483.97 445.00 471.00
C 438.16 475.78 428.08 481.88 421.75 486.75 C 415.43 491.63 400.83 501.99 396.25 490.75 C 391.66 479.51 408.16 475.74 414.23 470.23 C 420.30 464.72 431.86 459.74 438.00 454.00
C 431.04 448.67 421.25 443.85 414.75 438.25 C 408.26 432.64 391.92 429.07 396.78 417.78 C 401.64 406.48 413.92 416.33 420.75 421.25 C 427.57 426.17 437.65 432.33 445.00 437.00
C 447.97 427.40 437.51 396.21 454.01 396.01 C 470.50 395.81 460.09 427.50 463.00 437.00
C 471.16 433.06 479.70 426.26 487.25 421.25 C 494.79 416.23 506.41 406.78 512.00 418.00
L 512.00 0.00
L 194.00 0.00
C 201.42 6.22 203.71 32.88 190.00 33.00 C 176.28 33.12 178.48 5.92 186.00 0.00
L 112.00 0.00
C 118.95 6.61 120.06 19.16 125.92 26.08 C 131.79 32.99 136.10 49.89 123.99 49.99 C 111.88 50.10 112.54 33.69 107.08 26.92 C 101.62 20.15 94.34 5.55 104.00 0.00
L 0.00 0.00
L 0.00 104.00
M 45.00 33.00 
C 52.00 35.13 55.07 45.76 61.75 49.25 C 68.43 52.74 70.91 62.76 78.25 65.75 C 85.58 68.74 83.30 90.60 71.33 82.67 C 59.36 74.74 48.94 59.33 37.75 50.25 C 26.56 41.17 35.58 30.14 45.00 33.00
M 239.00 85.00 
C 242.12 85.80 245.14 87.42 248.00 89.00
C 253.11 91.81 258.12 96.17 263.08 98.92 C 268.04 101.67 271.11 109.56 276.00 111.00
C 286.07 108.39 300.56 108.65 311.00 109.00 C 321.44 109.35 331.79 113.79 341.08 116.92 C 350.36 120.06 358.30 124.60 366.23 129.77 C 374.16 134.94 379.62 139.71 386.25 146.75 C 392.88 153.80 397.15 163.93 408.02 162.98 C 418.90 162.02 430.05 167.22 439.68 169.32 C 449.30 171.42 456.27 177.63 464.25 181.75 C 472.22 185.88 478.05 194.76 484.25 199.75 C 490.45 204.74 497.33 223.42 485.00 223.00
C 490.29 231.81 489.89 243.22 492.00 253.00
C 505.77 250.56 504.60 273.45 491.00 270.00
C 492.72 274.95 489.34 283.57 488.22 288.22 C 487.10 292.88 486.91 301.17 484.00 305.00
C 497.31 302.65 494.66 320.03 488.70 325.70 C 482.74 331.36 485.95 330.29 480.75 336.75 C 475.55 343.22 469.49 349.51 462.92 354.92 C 456.34 360.33 447.45 365.48 439.77 368.77 C 432.09 372.06 432.88 369.46 425.99 372.99 C 419.10 376.53 417.73 370.74 413.00 369.00
C 405.00 366.05 394.68 370.22 386.00 369.00 C 377.32 367.78 366.97 369.42 358.00 369.00 C 349.03 368.58 340.03 368.24 331.00 368.00
C 331.00 375.86 321.30 385.36 315.75 391.75 C 310.20 398.13 308.08 411.09 296.97 412.97 C 285.87 414.86 286.18 397.70 294.25 391.25 C 302.32 384.80 304.73 375.71 311.00 368.00
C 306.28 369.55 298.99 367.70 294.00 368.00 C 289.01 368.30 281.81 368.74 277.00 368.00 C 272.19 367.26 264.05 370.28 260.00 368.00
C 259.81 375.94 249.70 384.71 244.25 391.25 C 238.79 397.78 237.03 410.15 225.97 412.97 C 214.92 415.80 213.55 397.71 222.30 391.30 C 231.05 384.90 232.50 375.75 239.00 368.00
C 232.80 369.86 224.01 367.74 217.93 367.07 C 211.85 366.41 201.79 368.23 196.00 367.00 C 190.21 365.77 179.14 370.19 175.00 366.00
C 174.69 380.84 153.51 371.06 145.77 366.23 C 138.04 361.40 126.85 355.24 120.25 346.75 C 113.64 338.27 107.14 329.55 103.23 318.77 C 99.32 307.99 97.67 290.56 99.78 278.78 C 101.89 267.00 104.57 255.60 112.00 246.00
C 107.61 246.11 105.60 235.49 102.23 232.77 C 98.86 230.05 97.95 219.19 95.00 216.00
C 91.16 211.85 86.54 210.33 85.68 203.32 C 84.81 196.32 82.46 191.04 82.00 184.00 C 81.54 176.96 80.35 169.80 81.93 162.93 C 83.51 156.05 82.15 150.39 84.98 143.98 C 87.80 137.56 87.10 133.41 90.93 126.93 C 94.75 120.44 94.00 119.77 99.30 112.30 C 104.61 104.84 113.72 94.71 121.23 89.23 C 128.74 83.75 128.19 83.30 134.75 79.75 C 141.30 76.19 143.84 74.80 150.23 72.23 C 156.62 69.66 161.46 68.70 168.22 67.22 C 174.98 65.74 181.35 65.57 189.00 66.00 C 196.65 66.43 202.22 64.59 210.07 67.93 C 217.93 71.26 240.72 72.06 239.00 85.00
M 45.00 165.00 
C 50.89 166.79 52.41 178.81 45.92 180.92 C 39.42 183.03 27.96 182.18 21.33 181.67 C 14.70 181.16 13.83 167.05 20.08 166.08 C 26.34 165.11 38.36 162.98 45.00 165.00
M 237.00 453.00 
C 248.08 454.60 243.30 469.26 237.25 474.25 C 231.19 479.24 228.75 489.37 222.70 494.70 C 216.65 500.03 214.85 512.90 204.00 511.00 C 193.15 509.09 197.88 495.34 203.92 489.92 C 209.96 484.49 213.08 475.21 218.75 469.75 C 224.42 464.30 227.15 451.57 237.00 453.00
M 306.00 453.00 
C 320.68 455.13 308.37 470.76 303.25 478.25 C 298.12 485.73 290.55 491.80 285.75 502.75 C 280.94 513.69 261.51 509.86 267.31 498.31 C 273.10 486.76 278.71 481.78 284.77 473.77 C 290.83 465.76 295.90 451.54 306.00 453.00 Z"/>
</g>
<g fill="None" fill-opacity="0.0" stroke="#002338" stroke-opacity="0.93" stroke-width="0.3"><path d="
M 112.00 0.00 
L 104.00 0.00
C 94.34 5.55 101.62 20.15 107.08 26.92 C 112.54 33.69 111.88 50.10 123.99 49.99 C 136.10 49.89 131.79 32.99 125.92 26.08 C 120.06 19.16 118.95 6.61 112.00 0.00 Z"/>
</g>
<g fill="None" fill-opacity="0.0" stroke="#002338" stroke-opacity="0.90" stroke-width="0.3"><path d="
M 194.00 0.00 
L 186.00 0.00
C 178.48 5.92 176.28 33.12 190.00 33.00 C 203.71 32.88 201.42 6.22 194.00 0.00 Z"/>
</g>
<g fill="None" fill-opacity="0.0" stroke="#002338" stroke-opacity="0.93" stroke-width="0.3"><path d="
M 45.00 33.00 
C 35.58 30.14 26.56 41.17 37.75 50.25 C 48.94 59.33 59.36 74.74 71.33 82.67 C 83.30 90.60 85.58 68.74 78.25 65.75 C 70.91 62.76 68.43 52.74 61.75 49.25 C 55.07 45.76 52.00 35.13 45.00 33.00 Z"/>
</g>
<g fill="None" fill-opacity="0.0" stroke="#002337" stroke-opacity="0.96" stroke-width="0.3"><path d="
M 95.00 216.00 
C 96.77 216.04 99.98 213.62 102.00 213.00
C 108.92 206.35 98.69 191.91 99.00 183.00 C 99.31 174.09 97.39 158.90 100.93 149.93 C 104.46 140.95 106.58 131.90 112.25 124.25 C 117.93 116.61 121.92 110.59 129.25 104.25 C 136.57 97.91 143.25 94.14 152.08 90.08 C 160.90 86.01 171.81 83.00 182.00 83.00
C 185.77 82.63 190.29 82.64 194.00 83.00
C 201.62 83.00 212.56 84.81 219.07 87.93 C 225.59 91.04 237.53 96.02 239.00 85.00
C 240.72 72.06 217.93 71.26 210.07 67.93 C 202.22 64.59 196.65 66.43 189.00 66.00 C 181.35 65.57 174.98 65.74 168.22 67.22 C 161.46 68.70 156.62 69.66 150.23 72.23 C 143.84 74.80 141.30 76.19 134.75 79.75 C 128.19 83.30 128.74 83.75 121.23 89.23 C 113.72 94.71 104.61 104.84 99.30 112.30 C 94.00 119.77 94.75 120.44 90.93 126.93 C 87.10 133.41 87.80 137.56 84.98 143.98 C 82.15 150.39 83.51 156.05 81.93 162.93 C 80.35 169.80 81.54 176.96 82.00 184.00 C 82.46 191.04 84.81 196.32 85.68 203.32 C 86.54 210.33 91.16 211.85 95.00 216.00 Z"/>
</g>
<g fill="None" fill-opacity="0.0" stroke="#535D28" stroke-opacity="1.00" stroke-width="0.3"><path d="
M 182.00 83.00 
C 186.00 83.00 190.00 83.00 194.00 83.00
C 190.29 82.64 185.77 82.63 182.00 83.00 Z"/>
</g>
<g fill="None" fill-opacity="0.0" stroke="#FDD307" stroke-opacity="1.00" stroke-width="0.3"><path d="
M 102.00 213.00 
C 121.62 206.97 136.88 191.26 153.25 176.25 C 169.62 161.23 176.31 139.72 190.30 122.30 C 204.29 104.88 228.23 94.95 248.00 89.00
C 245.14 87.42 242.12 85.80 239.00 85.00
C 237.53 96.02 225.59 91.04 219.07 87.93 C 212.56 84.81 201.62 83.00 194.00 83.00
C 190.00 83.00 186.00 83.00 182.00 83.00
C 171.81 83.00 160.90 86.01 152.08 90.08 C 143.25 94.14 136.57 97.91 129.25 104.25 C 121.92 110.59 117.93 116.61 112.25 124.25 C 106.58 131.90 104.46 140.95 100.93 149.93 C 97.39 158.90 99.31 174.09 99.00 183.00 C 98.69 191.91 108.92 206.35 102.00 213.00 Z"/>
</g>
<g fill="None" fill-opacity="0.0" stroke="#E9C001" stroke-opacity="1.00" stroke-width="0.3"><path d="
M 102.00 213.00 
C 99.98 213.62 96.77 216.04 95.00 216.00
C 97.95 219.19 98.86 230.05 102.23 232.77 C 105.60 235.49 107.61 246.11 112.00 246.00
C 128.61 224.54 151.98 207.98 179.00 205.00
C 188.92 158.19 231.52 122.09 276.00 111.00
C 271.11 109.56 268.04 101.67 263.08 98.92 C 258.12 96.17 253.11 91.81 248.00 89.00
C 228.23 94.95 204.29 104.88 190.30 122.30 C 176.31 139.72 169.62 161.23 153.25 176.25 C 136.88 191.26 121.62 206.97 102.00 213.00 Z"/>
</g>
<g fill="None" fill-opacity="0.0" stroke="#002337" stroke-opacity="0.93" stroke-width="0.3"><path d="
M 0.00 104.00 
L 0.00 112.00
C 6.67 118.72 19.00 120.22 25.92 126.08 C 32.85 131.93 49.95 135.93 49.99 124.01 C 50.03 112.09 33.85 112.36 27.08 106.92 C 20.30 101.49 5.52 94.50 0.00 104.00 Z"/>
</g>
<g fill="None" fill-opacity="0.0" stroke="#012439" stroke-opacity="0.98" stroke-width="0.3"><path d="
M 276.00 111.00 
C 231.52 122.09 188.92 158.19 179.00 205.00
C 151.98 207.98 128.61 224.54 112.00 246.00
C 104.57 255.60 101.89 267.00 99.78 278.78 C 97.67 290.56 99.32 307.99 103.23 318.77 C 107.14 329.55 113.64 338.27 120.25 346.75 C 126.85 355.24 138.04 361.40 145.77 366.23 C 153.51 371.06 174.69 380.84 175.00 366.00
C 175.23 355.08 159.98 356.04 152.92 351.08 C 145.87 346.11 137.63 341.13 132.00 334.00
C 122.85 322.41 117.71 311.92 116.00 297.00 C 114.29 282.08 119.53 266.95 126.75 254.75 C 133.97 242.56 144.40 237.74 154.70 229.70 C 164.99 221.65 186.94 226.03 192.92 214.92 C 198.91 203.82 199.87 187.62 208.30 177.30 C 216.74 166.99 222.87 157.82 233.75 149.75 C 244.62 141.67 255.18 135.31 268.22 131.22 C 281.27 127.14 301.32 123.90 315.00 127.00 C 328.68 130.10 342.30 133.42 353.23 141.77 C 364.16 150.12 374.39 153.67 380.92 167.08 C 387.45 180.49 405.66 180.59 419.67 181.33 C 433.68 182.07 445.10 192.31 456.75 197.25 C 468.39 202.20 472.17 222.76 484.00 223.00
C 484.50 223.01 485.00 223.00 485.00 223.00
C 497.33 223.42 490.45 204.74 484.25 199.75 C 478.05 194.76 472.22 185.88 464.25 181.75 C 456.27 177.63 449.30 171.42 439.68 169.32 C 430.05 167.22 418.90 162.02 408.02 162.98 C 397.15 163.93 392.88 153.80 386.25 146.75 C 379.62 139.71 374.16 134.94 366.23 129.77 C 358.30 124.60 350.36 120.06 341.08 116.92 C 331.79 113.79 321.44 109.35 311.00 109.00 C 300.56 108.65 286.07 108.39 276.00 111.00 Z"/>
</g>
<g fill="None" fill-opacity="0.0" stroke="#B1CDFE" stroke-opacity="1.00" stroke-width="0.3"><path d="
M 132.00 334.00 
C 139.94 338.77 151.22 331.47 159.22 330.22 C 167.23 328.98 175.00 322.97 182.25 319.25 C 189.49 315.52 195.65 311.34 202.75 306.75 C 209.84 302.15 216.23 298.23 224.08 294.08 C 231.92 289.92 239.45 287.89 248.67 285.67 C 257.89 283.45 269.61 282.94 280.00 283.00 C 290.39 283.06 300.81 283.98 311.00 285.00 C 321.19 286.02 335.00 284.42 345.00 285.00 C 355.00 285.58 364.71 282.94 373.22 280.22 C 381.73 277.51 389.18 274.38 395.75 268.75 C 402.31 263.11 406.41 258.24 411.92 251.92 C 417.42 245.60 422.87 240.61 429.70 235.70 C 436.53 230.78 446.23 230.20 454.02 227.02 C 461.81 223.85 477.56 227.77 484.00 223.00
C 472.17 222.76 468.39 202.20 456.75 197.25 C 445.10 192.31 433.68 182.07 419.67 181.33 C 405.66 180.59 387.45 180.49 380.92 167.08 C 374.39 153.67 364.16 150.12 353.23 141.77 C 342.30 133.42 328.68 130.10 315.00 127.00 C 301.32 123.90 281.27 127.14 268.22 131.22 C 255.18 135.31 244.62 141.67 233.75 149.75 C 222.87 157.82 216.74 166.99 208.30 177.30 C 199.87 187.62 198.91 203.82 192.92 214.92 C 186.94 226.03 164.99 221.65 154.70 229.70 C 144.40 237.74 133.97 242.56 126.75 254.75 C 119.53 266.95 114.29 282.08 116.00 297.00 C 117.71 311.92 122.85 322.41 132.00 334.00 Z"/>
</g>
<g fill="None" fill-opacity="0.0" stroke="#002338" stroke-opacity="0.92" stroke-width="0.3"><path d="
M 45.00 165.00 
C 38.36 162.98 26.34 165.11 20.08 166.08 C 13.83 167.05 14.70 181.16 21.33 181.67 C 27.96 182.18 39.42 183.03 45.92 180.92 C 52.41 178.81 50.89 166.79 45.00 165.00 Z"/>
</g>
<g fill="None" fill-opacity="0.0" stroke="#9DB9EA" stroke-opacity="1.00" stroke-width="0.3"><path d="
M 132.00 334.00 
C 137.63 341.13 145.87 346.11 152.92 351.08 C 159.98 356.04 175.23 355.08 175.00 366.00
C 179.14 370.19 190.21 365.77 196.00 367.00 C 201.79 368.23 211.85 366.41 217.93 367.07 C 224.01 367.74 232.80 369.86 239.00 368.00
C 244.02 362.01 260.37 352.74 260.00 368.00
C 264.05 370.28 272.19 367.26 277.00 368.00 C 281.81 368.74 289.01 368.30 294.00 368.00 C 298.99 367.70 306.28 369.55 311.00 368.00
C 315.89 361.99 331.00 352.71 331.00 368.00
C 340.03 368.24 349.03 368.58 358.00 369.00 C 366.97 369.42 377.32 367.78 386.00 369.00 C 394.68 370.22 405.00 366.05 413.00 369.00
C 409.00 354.79 431.38 355.89 439.08 350.08 C 446.77 344.26 458.41 339.30 464.25 330.25 C 470.09 321.19 477.85 313.10 484.00 305.00
C 486.91 301.17 487.10 292.88 488.22 288.22 C 489.34 283.57 492.72 274.95 491.00 270.00
C 482.83 267.93 483.74 254.46 492.00 253.00
C 489.89 243.22 490.29 231.81 485.00 223.00
C 485.00 223.00 484.50 223.01 484.00 223.00
C 477.56 227.77 461.81 223.85 454.02 227.02 C 446.23 230.20 436.53 230.78 429.70 235.70 C 422.87 240.61 417.42 245.60 411.92 251.92 C 406.41 258.24 402.31 263.11 395.75 268.75 C 389.18 274.38 381.73 277.51 373.22 280.22 C 364.71 282.94 355.00 285.58 345.00 285.00 C 335.00 284.42 321.19 286.02 311.00 285.00 C 300.81 283.98 290.39 283.06 280.00 283.00 C 269.61 282.94 257.89 283.45 248.67 285.67 C 239.45 287.89 231.92 289.92 224.08 294.08 C 216.23 298.23 209.84 302.15 202.75 306.75 C 195.65 311.34 189.49 315.52 182.25 319.25 C 175.00 322.97 167.23 328.98 159.22 330.22 C 151.22 331.47 139.94 338.77 132.00 334.00 Z"/>
</g>
<g fill="None" fill-opacity="0.0" stroke="#01253A" stroke-opacity="0.93" stroke-width="0.3"><path d="
M 491.00 270.00 
C 504.60 273.45 505.77 250.56 492.00 253.00
C 483.74 254.46 482.83 267.93 491.00 270.00 Z"/>
</g>
<g fill="None" fill-opacity="0.0" stroke="#002439" stroke-opacity="0.96" stroke-width="0.3"><path d="
M 413.00 369.00 
C 417.73 370.74 419.10 376.53 425.99 372.99 C 432.88 369.46 432.09 372.06 439.77 368.77 C 447.45 365.48 456.34 360.33 462.92 354.92 C 469.49 349.51 475.55 343.22 480.75 336.75 C 485.95 330.29 482.74 331.36 488.70 325.70 C 494.66 320.03 497.31 302.65 484.00 305.00
C 477.85 313.10 470.09 321.19 464.25 330.25 C 458.41 339.30 446.77 344.26 439.08 350.08 C 431.38 355.89 409.00 354.79 413.00 369.00 Z"/>
</g>
<g fill="None" fill-opacity="0.0" stroke="#002338" stroke-opacity="0.93" stroke-width="0.3"><path d="
M 239.00 368.00 
C 232.50 375.75 231.05 384.90 222.30 391.30 C 213.55 397.71 214.92 415.80 225.97 412.97 C 237.03 410.15 238.79 397.78 244.25 391.25 C 249.70 384.71 259.81 375.94 260.00 368.00
C 260.37 352.74 244.02 362.01 239.00 368.00 Z"/>
</g>
<g fill="None" fill-opacity="0.0" stroke="#002338" stroke-opacity="0.94" stroke-width="0.3"><path d="
M 311.00 368.00 
C 304.73 375.71 302.32 384.80 294.25 391.25 C 286.18 397.70 285.87 414.86 296.97 412.97 C 308.08 411.09 310.20 398.13 315.75 391.75 C 321.30 385.36 331.00 375.86 331.00 368.00
C 331.00 352.71 315.89 361.99 311.00 368.00 Z"/>
</g>
<g fill="None" fill-opacity="0.0" stroke="#002238" stroke-opacity="0.93" stroke-width="0.3"><path d="
M 0.00 400.00 
L 0.00 409.00
C 13.42 419.64 28.55 427.87 42.00 438.00
C 27.93 447.43 12.46 455.89 0.00 467.00
L 0.00 475.00
C 8.13 484.60 18.24 474.57 25.77 469.77 C 33.30 464.97 41.08 458.95 49.00 455.00
C 51.92 464.46 41.48 496.06 57.99 495.99 C 74.51 495.92 64.01 464.50 67.00 455.00
C 74.10 459.12 84.48 465.15 90.77 470.23 C 97.06 475.31 111.65 484.89 115.67 473.67 C 119.69 462.46 103.88 458.99 97.70 453.30 C 91.51 447.61 80.81 443.28 74.00 438.00
C 80.17 432.20 91.66 427.36 97.77 421.77 C 103.88 416.18 120.26 412.63 115.75 401.25 C 111.25 389.86 96.62 400.37 90.25 405.25 C 83.87 410.12 73.88 416.22 67.00 421.00
C 66.86 410.48 67.28 397.48 66.78 387.22 C 66.27 376.97 49.58 376.68 49.00 387.00 C 48.42 397.32 49.44 410.42 49.00 421.00
C 41.27 416.10 33.29 410.26 25.70 405.30 C 18.11 400.35 8.24 390.96 0.00 400.00 Z"/>
</g>
<g fill="None" fill-opacity="0.0" stroke="#002238" stroke-opacity="0.93" stroke-width="0.3"><path d="
M 451.00 512.00 
L 458.00 512.00
C 468.36 502.32 460.59 484.20 463.00 471.00
C 470.80 475.67 479.18 481.43 486.70 486.30 C 494.21 491.18 504.98 502.04 512.00 491.00
L 512.00 484.00
C 501.34 471.38 481.90 465.29 471.00 453.00
C 484.85 444.50 499.85 435.68 512.00 425.00
L 512.00 418.00
C 506.41 406.78 494.79 416.23 487.25 421.25 C 479.70 426.26 471.16 433.06 463.00 437.00
C 460.09 427.50 470.50 395.81 454.01 396.01 C 437.51 396.21 447.97 427.40 445.00 437.00
C 437.65 432.33 427.57 426.17 420.75 421.25 C 413.92 416.33 401.64 406.48 396.78 417.78 C 391.92 429.07 408.26 432.64 414.75 438.25 C 421.25 443.85 431.04 448.67 438.00 454.00
C 431.86 459.74 420.30 464.72 414.23 470.23 C 408.16 475.74 391.66 479.51 396.25 490.75 C 400.83 501.99 415.43 491.63 421.75 486.75 C 428.08 481.88 438.16 475.78 445.00 471.00
C 445.73 483.97 443.19 497.81 447.00 510.00
C 448.54 509.96 450.16 510.90 451.00 512.00 Z"/>
</g>
<g fill="None" fill-opacity="0.0" stroke="#000000" stroke-opacity="0.00" stroke-width="0.3"><path d="
M 0.00 467.00 
C 12.46 455.89 27.93 447.43 42.00 438.00
C 28.55 427.87 13.42 419.64 0.00 409.00
L 0.00 467.00 Z"/>
</g>
<g fill="None" fill-opacity="0.0" stroke="#000000" stroke-opacity="0.00" stroke-width="0.3"><path d="
M 512.00 484.00 
L 512.00 425.00
C 499.85 435.68 484.85 444.50 471.00 453.00
C 481.90 465.29 501.34 471.38 512.00 484.00 Z"/>
</g>
<g fill="None" fill-opacity="0.0" stroke="#002338" stroke-opacity="0.92" stroke-width="0.3"><path d="
M 237.00 453.00 
C 227.15 451.57 224.42 464.30 218.75 469.75 C 213.08 475.21 209.96 484.49 203.92 489.92 C 197.88 495.34 193.15 509.09 204.00 511.00 C 214.85 512.90 216.65 500.03 222.70 494.70 C 228.75 489.37 231.19 479.24 237.25 474.25 C 243.30 469.26 248.08 454.60 237.00 453.00 Z"/>
</g>
<g fill="None" fill-opacity="0.0" stroke="#002238" stroke-opacity="0.92" stroke-width="0.3"><path d="
M 306.00 453.00 
C 295.90 451.54 290.83 465.76 284.77 473.77 C 278.71 481.78 273.10 486.76 267.31 498.31 C 261.51 509.86 280.94 513.69 285.75 502.75 C 290.55 491.80 298.12 485.73 303.25 478.25 C 308.37 470.76 320.68 455.13 306.00 453.00 Z"/>
</g>
<g fill="None" fill-opacity="0.0" stroke="#000000" stroke-opacity="0.00" stroke-width="0.3"><path d="
M 458.00 512.00 
L 512.00 512.00
L 512.00 491.00
C 504.98 502.04 494.21 491.18 486.70 486.30 C 479.18 481.43 470.80 475.67 463.00 471.00
C 460.59 484.20 468.36 502.32 458.00 512.00 Z"/>
</g>
<g fill="#000000" fill-opacity="0.00" stroke="None">
<path d="
M 0.00 104.00 
C 5.52 94.50 20.30 101.49 27.08 106.92 C 33.85 112.36 50.03 112.09 49.99 124.01 C 49.95 135.93 32.85 131.93 25.92 126.08 C 19.00 120.22 6.67 118.72 0.00 112.00
L 0.00 400.00
C 8.24 390.96 18.11 400.35 25.70 405.30 C 33.29 410.26 41.27 416.10 49.00 421.00
C 49.44 410.42 48.42 397.32 49.00 387.00 C 49.58 376.68 66.27 376.97 66.78 387.22 C 67.28 397.48 66.86 410.48 67.00 421.00
C 73.88 416.22 83.87 410.12 90.25 405.25 C 96.62 400.37 111.25 389.86 115.75 401.25 C 120.26 412.63 103.88 416.18 97.77 421.77 C 91.66 427.36 80.17 432.20 74.00 438.00
C 80.81 443.28 91.51 447.61 97.70 453.30 C 103.88 458.99 119.69 462.46 115.67 473.67 C 111.65 484.89 97.06 475.31 90.77 470.23 C 84.48 465.15 74.10 459.12 67.00 455.00
C 64.01 464.50 74.51 495.92 57.99 495.99 C 41.48 496.06 51.92 464.46 49.00 455.00
C 41.08 458.95 33.30 464.97 25.77 469.77 C 18.24 474.57 8.13 484.60 0.00 475.00
L 0.00 512.00
L 451.00 512.00
C 450.16 510.90 448.54 509.96 447.00 510.00
C 443.19 497.81 445.73 483.97 445.00 471.00
C 438.16 475.78 428.08 481.88 421.75 486.75 C 415.43 491.63 400.83 501.99 396.25 490.75 C 391.66 479.51 408.16 475.74 414.23 470.23 C 420.30 464.72 431.86 459.74 438.00 454.00
C 431.04 448.67 421.25 443.85 414.75 438.25 C 408.26 432.64 391.92 429.07 396.78 417.78 C 401.64 406.48 413.92 416.33 420.75 421.25 C 427.57 426.17 437.65 432.33 445.00 437.00
C 447.97 427.40 437.51 396.21 454.01 396.01 C 470.50 395.81 460.09 427.50 463.00 437.00
C 471.16 433.06 479.70 426.26 487.25 421.25 C 494.79 416.23 506.41 406.78 512.00 418.00
L 512.00 0.00
L 194.00 0.00
C 201.42 6.22 203.71 32.88 190.00 33.00 C 176.28 33.12 178.48 5.92 186.00 0.00
L 112.00 0.00
C 118.95 6.61 120.06 19.16 125.92 26.08 C 131.79 32.99 136.10 49.89 123.99 49.99 C 111.88 50.10 112.54 33.69 107.08 26.92 C 101.62 20.15 94.34 5.55 104.00 0.00
L 0.00 0.00
L 0.00 104.00
M 45.00 33.00 
C 52.00 35.13 55.07 45.76 61.75 49.25 C 68.43 52.74 70.91 62.76 78.25 65.75 C 85.58 68.74 83.30 90.60 71.33 82.67 C 59.36 74.74 48.94 59.33 37.75 50.25 C 26.56 41.17 35.58 30.14 45.00 33.00
M 239.00 85.00 
C 242.12 85.80 245.14 87.42 248.00 89.00
C 253.11 91.81 258.12 96.17 263.08 98.92 C 268.04 101.67 271.11 109.56 276.00 111.00
C 286.07 108.39 300.56 108.65 311.00 109.00 C 321.44 109.35 331.79 113.79 341.08 116.92 C 350.36 120.06 358.30 124.60 366.23 129.77 C 374.16 134.94 379.62 139.71 386.25 146.75 C 392.88 153.80 397.15 163.93 408.02 162.98 C 418.90 162.02 430.05 167.22 439.68 169.32 C 449.30 171.42 456.27 177.63 464.25 181.75 C 472.22 185.88 478.05 194.76 484.25 199.75 C 490.45 204.74 497.33 223.42 485.00 223.00
C 490.29 231.81 489.89 243.22 492.00 253.00
C 505.77 250.56 504.60 273.45 491.00 270.00
C 492.72 274.95 489.34 283.57 488.22 288.22 C 487.10 292.88 486.91 301.17 484.00 305.00
C 497.31 302.65 494.66 320.03 488.70 325.70 C 482.74 331.36 485.95 330.29 480.75 336.75 C 475.55 343.22 469.49 349.51 462.92 354.92 C 456.34 360.33 447.45 365.48 439.77 368.77 C 432.09 372.06 432.88 369.46 425.99 372.99 C 419.10 376.53 417.73 370.74 413.00 369.00
C 405.00 366.05 394.68 370.22 386.00 369.00 C 377.32 367.78 366.97 369.42 358.00 369.00 C 349.03 368.58 340.03 368.24 331.00 368.00
C 331.00 375.86 321.30 385.36 315.75 391.75 C 310.20 398.13 308.08 411.09 296.97 412.97 C 285.87 414.86 286.18 397.70 294.25 391.25 C 302.32 384.80 304.73 375.71 311.00 368.00
C 306.28 369.55 298.99 367.70 294.00 368.00 C 289.01 368.30 281.81 368.74 277.00 368.00 C 272.19 367.26 264.05 370.28 260.00 368.00
C 259.81 375.94 249.70 384.71 244.25 391.25 C 238.79 397.78 237.03 410.15 225.97 412.97 C 214.92 415.80 213.55 397.71 222.30 391.30 C 231.05 384.90 232.50 375.75 239.00 368.00
C 232.80 369.86 224.01 367.74 217.93 367.07 C 211.85 366.41 201.79 368.23 196.00 367.00 C 190.21 365.77 179.14 370.19 175.00 366.00
C 174.69 380.84 153.51 371.06 145.77 366.23 C 138.04 361.40 126.85 355.24 120.25 346.75 C 113.64 338.27 107.14 329.55 103.23 318.77 C 99.32 307.99 97.67 290.56 99.78 278.78 C 101.89 267.00 104.57 255.60 112.00 246.00
C 107.61 246.11 105.60 235.49 102.23 232.77 C 98.86 230.05 97.95 219.19 95.00 216.00
C 91.16 211.85 86.54 210.33 85.68 203.32 C 84.81 196.32 82.46 191.04 82.00 184.00 C 81.54 176.96 80.35 169.80 81.93 162.93 C 83.51 156.05 82.15 150.39 84.98 143.98 C 87.80 137.56 87.10 133.41 90.93 126.93 C 94.75 120.44 94.00 119.77 99.30 112.30 C 104.61 104.84 113.72 94.71 121.23 89.23 C 128.74 83.75 128.19 83.30 134.75 79.75 C 141.30 76.19 143.84 74.80 150.23 72.23 C 156.62 69.66 161.46 68.70 168.22 67.22 C 174.98 65.74 181.35 65.57 189.00 66.00 C 196.65 66.43 202.22 64.59 210.07 67.93 C 217.93 71.26 240.72 72.06 239.00 85.00
M 45.00 165.00 
C 50.89 166.79 52.41 178.81 45.92 180.92 C 39.42 183.03 27.96 182.18 21.33 181.67 C 14.70 181.16 13.83 167.05 20.08 166.08 C 26.34 165.11 38.36 162.98 45.00 165.00
M 237.00 453.00 
C 248.08 454.60 243.30 469.26 237.25 474.25 C 231.19 479.24 228.75 489.37 222.70 494.70 C 216.65 500.03 214.85 512.90 204.00 511.00 C 193.15 509.09 197.88 495.34 203.92 489.92 C 209.96 484.49 213.08 475.21 218.75 469.75 C 224.42 464.30 227.15 451.57 237.00 453.00
M 306.00 453.00 
C 320.68 455.13 308.37 470.76 303.25 478.25 C 298.12 485.73 290.55 491.80 285.75 502.75 C 280.94 513.69 261.51 509.86 267.31 498.31 C 273.10 486.76 278.71 481.78 284.77 473.77 C 290.83 465.76 295.90 451.54 306.00 453.00 Z"/>
</g>
<g fill="#002338" fill-opacity="0.93" stroke="None">
<path d="
M 112.00 0.00 
L 104.00 0.00
C 94.34 5.55 101.62 20.15 107.08 26.92 C 112.54 33.69 111.88 50.10 123.99 49.99 C 136.10 49.89 131.79 32.99 125.92 26.08 C 120.06 19.16 118.95 6.61 112.00 0.00 Z"/>
</g>
<g fill="#002338" fill-opacity="0.90" stroke="None">
<path d="
M 194.00 0.00 
L 186.00 0.00
C 178.48 5.92 176.28 33.12 190.00 33.00 C 203.71 32.88 201.42 6.22 194.00 0.00 Z"/>
</g>
<g fill="#002338" fill-opacity="0.93" stroke="None">
<path d="
M 45.00 33.00 
C 35.58 30.14 26.56 41.17 37.75 50.25 C 48.94 59.33 59.36 74.74 71.33 82.67 C 83.30 90.60 85.58 68.74 78.25 65.75 C 70.91 62.76 68.43 52.74 61.75 49.25 C 55.07 45.76 52.00 35.13 45.00 33.00 Z"/>
</g>
<g fill="#002337" fill-opacity="0.96" stroke="None">
<path d="
M 95.00 216.00 
C 96.77 216.04 99.98 213.62 102.00 213.00
C 108.92 206.35 98.69 191.91 99.00 183.00 C 99.31 174.09 97.39 158.90 100.93 149.93 C 104.46 140.95 106.58 131.90 112.25 124.25 C 117.93 116.61 121.92 110.59 129.25 104.25 C 136.57 97.91 143.25 94.14 152.08 90.08 C 160.90 86.01 171.81 83.00 182.00 83.00
C 185.77 82.63 190.29 82.64 194.00 83.00
C 201.62 83.00 212.56 84.81 219.07 87.93 C 225.59 91.04 237.53 96.02 239.00 85.00
C 240.72 72.06 217.93 71.26 210.07 67.93 C 202.22 64.59 196.65 66.43 189.00 66.00 C 181.35 65.57 174.98 65.74 168.22 67.22 C 161.46 68.70 156.62 69.66 150.23 72.23 C 143.84 74.80 141.30 76.19 134.75 79.75 C 128.19 83.30 128.74 83.75 121.23 89.23 C 113.72 94.71 104.61 104.84 99.30 112.30 C 94.00 119.77 94.75 120.44 90.93 126.93 C 87.10 133.41 87.80 137.56 84.98 143.98 C 82.15 150.39 83.51 156.05 81.93 162.93 C 80.35 169.80 81.54 176.96 82.00 184.00 C 82.46 191.04 84.81 196.32 85.68 203.32 C 86.54 210.33 91.16 211.85 95.00 216.00 Z"/>
</g>
<g fill="#535D28" fill-opacity="1.00" stroke="None">
<path d="
M 182.00 83.00 
C 186.00 83.00 190.00 83.00 194.00 83.00
C 190.29 82.64 185.77 82.63 182.00 83.00 Z"/>
</g>
<g fill="#FDD307" fill-opacity="1.00" stroke="None">
<path d="
M 102.00 213.00 
C 121.62 206.97 136.88 191.26 153.25 176.25 C 169.62 161.23 176.31 139.72 190.30 122.30 C 204.29 104.88 228.23 94.95 248.00 89.00
C 245.14 87.42 242.12 85.80 239.00 85.00
C 237.53 96.02 225.59 91.04 219.07 87.93 C 212.56 84.81 201.62 83.00 194.00 83.00
C 190.00 83.00 186.00 83.00 182.00 83.00
C 171.81 83.00 160.90 86.01 152.08 90.08 C 143.25 94.14 136.57 97.91 129.25 104.25 C 121.92 110.59 117.93 116.61 112.25 124.25 C 106.58 131.90 104.46 140.95 100.93 149.93 C 97.39 158.90 99.31 174.09 99.00 183.00 C 98.69 191.91 108.92 206.35 102.00 213.00 Z"/>
</g>
<g fill="#E9C001" fill-opacity="1.00" stroke="None">
<path d="
M 102.00 213.00 
C 99.98 213.62 96.77 216.04 95.00 216.00
C 97.95 219.19 98.86 230.05 102.23 232.77 C 105.60 235.49 107.61 246.11 112.00 246.00
C 128.61 224.54 151.98 207.98 179.00 205.00
C 188.92 158.19 231.52 122.09 276.00 111.00
C 271.11 109.56 268.04 101.67 263.08 98.92 C 258.12 96.17 253.11 91.81 248.00 89.00
C 228.23 94.95 204.29 104.88 190.30 122.30 C 176.31 139.72 169.62 161.23 153.25 176.25 C 136.88 191.26 121.62 206.97 102.00 213.00 Z"/>
</g>
<g fill="#002337" fill-opacity="0.93" stroke="None">
<path d="
M 0.00 104.00 
L 0.00 112.00
C 6.67 118.72 19.00 120.22 25.92 126.08 C 32.85 131.93 49.95 135.93 49.99 124.01 C 50.03 112.09 33.85 112.36 27.08 106.92 C 20.30 101.49 5.52 94.50 0.00 104.00 Z"/>
</g>
<g fill="#012439" fill-opacity="0.98" stroke="None">
<path d="
M 276.00 111.00 
C 231.52 122.09 188.92 158.19 179.00 205.00
C 151.98 207.98 128.61 224.54 112.00 246.00
C 104.57 255.60 101.89 267.00 99.78 278.78 C 97.67 290.56 99.32 307.99 103.23 318.77 C 107.14 329.55 113.64 338.27 120.25 346.75 C 126.85 355.24 138.04 361.40 145.77 366.23 C 153.51 371.06 174.69 380.84 175.00 366.00
C 175.23 355.08 159.98 356.04 152.92 351.08 C 145.87 346.11 137.63 341.13 132.00 334.00
C 122.85 322.41 117.71 311.92 116.00 297.00 C 114.29 282.08 119.53 266.95 126.75 254.75 C 133.97 242.56 144.40 237.74 154.70 229.70 C 164.99 221.65 186.94 226.03 192.92 214.92 C 198.91 203.82 199.87 187.62 208.30 177.30 C 216.74 166.99 222.87 157.82 233.75 149.75 C 244.62 141.67 255.18 135.31 268.22 131.22 C 281.27 127.14 301.32 123.90 315.00 127.00 C 328.68 130.10 342.30 133.42 353.23 141.77 C 364.16 150.12 374.39 153.67 380.92 167.08 C 387.45 180.49 405.66 180.59 419.67 181.33 C 433.68 182.07 445.10 192.31 456.75 197.25 C 468.39 202.20 472.17 222.76 484.00 223.00
C 484.50 223.01 485.00 223.00 485.00 223.00
C 497.33 223.42 490.45 204.74 484.25 199.75 C 478.05 194.76 472.22 185.88 464.25 181.75 C 456.27 177.63 449.30 171.42 439.68 169.32 C 430.05 167.22 418.90 162.02 408.02 162.98 C 397.15 163.93 392.88 153.80 386.25 146.75 C 379.62 139.71 374.16 134.94 366.23 129.77 C 358.30 124.60 350.36 120.06 341.08 116.92 C 331.79 113.79 321.44 109.35 311.00 109.00 C 300.56 108.65 286.07 108.39 276.00 111.00 Z"/>
</g>
<g fill="#B1CDFE" fill-opacity="1.00" stroke="None">
<path d="
M 132.00 334.00 
C 139.94 338.77 151.22 331.47 159.22 330.22 C 167.23 328.98 175.00 322.97 182.25 319.25 C 189.49 315.52 195.65 311.34 202.75 306.75 C 209.84 302.15 216.23 298.23 224.08 294.08 C 231.92 289.92 239.45 287.89 248.67 285.67 C 257.89 283.45 269.61 282.94 280.00 283.00 C 290.39 283.06 300.81 283.98 311.00 285.00 C 321.19 286.02 335.00 284.42 345.00 285.00 C 355.00 285.58 364.71 282.94 373.22 280.22 C 381.73 277.51 389.18 274.38 395.75 268.75 C 402.31 263.11 406.41 258.24 411.92 251.92 C 417.42 245.60 422.87 240.61 429.70 235.70 C 436.53 230.78 446.23 230.20 454.02 227.02 C 461.81 223.85 477.56 227.77 484.00 223.00
C 472.17 222.76 468.39 202.20 456.75 197.25 C 445.10 192.31 433.68 182.07 419.67 181.33 C 405.66 180.59 387.45 180.49 380.92 167.08 C 374.39 153.67 364.16 150.12 353.23 141.77 C 342.30 133.42 328.68 130.10 315.00 127.00 C 301.32 123.90 281.27 127.14 268.22 131.22 C 255.18 135.31 244.62 141.67 233.75 149.75 C 222.87 157.82 216.74 166.99 208.30 177.30 C 199.87 187.62 198.91 203.82 192.92 214.92 C 186.94 226.03 164.99 221.65 154.70 229.70 C 144.40 237.74 133.97 242.56 126.75 254.75 C 119.53 266.95 114.29 282.08 116.00 297.00 C 117.71 311.92 122.85 322.41 132.00 334.00 Z"/>
</g>
<g fill="#002338" fill-opacity="0.92" stroke="None">
<path d="
M 45.00 165.00 
C 38.36 162.98 26.34 165.11 20.08 166.08 C 13.83 167.05 14.70 181.16 21.33 181.67 C 27.96 182.18 39.42 183.03 45.92 180.92 C 52.41 178.81 50.89 166.79 45.00 165.00 Z"/>
</g>
<g fill="#9DB9EA" fill-opacity="1.00" stroke="None">
<path d="
M 132.00 334.00 
C 137.63 341.13 145.87 346.11 152.92 351.08 C 159.98 356.04 175.23 355.08 175.00 366.00
C 179.14 370.19 190.21 365.77 196.00 367.00 C 201.79 368.23 211.85 366.41 217.93 367.07 C 224.01 367.74 232.80 369.86 239.00 368.00
C 244.02 362.01 260.37 352.74 260.00 368.00
C 264.05 370.28 272.19 367.26 277.00 368.00 C 281.81 368.74 289.01 368.30 294.00 368.00 C 298.99 367.70 306.28 369.55 311.00 368.00
C 315.89 361.99 331.00 352.71 331.00 368.00
C 340.03 368.24 349.03 368.58 358.00 369.00 C 366.97 369.42 377.32 367.78 386.00 369.00 C 394.68 370.22 405.00 366.05 413.00 369.00
C 409.00 354.79 431.38 355.89 439.08 350.08 C 446.77 344.26 458.41 339.30 464.25 330.25 C 470.09 321.19 477.85 313.10 484.00 305.00
C 486.91 301.17 487.10 292.88 488.22 288.22 C 489.34 283.57 492.72 274.95 491.00 270.00
C 482.83 267.93 483.74 254.46 492.00 253.00
C 489.89 243.22 490.29 231.81 485.00 223.00
C 485.00 223.00 484.50 223.01 484.00 223.00
C 477.56 227.77 461.81 223.85 454.02 227.02 C 446.23 230.20 436.53 230.78 429.70 235.70 C 422.87 240.61 417.42 245.60 411.92 251.92 C 406.41 258.24 402.31 263.11 395.75 268.75 C 389.18 274.38 381.73 277.51 373.22 280.22 C 364.71 282.94 355.00 285.58 345.00 285.00 C 335.00 284.42 321.19 286.02 311.00 285.00 C 300.81 283.98 290.39 283.06 280.00 283.00 C 269.61 282.94 257.89 283.45 248.67 285.67 C 239.45 287.89 231.92 289.92 224.08 294.08 C 216.23 298.23 209.84 302.15 202.75 306.75 C 195.65 311.34 189.49 315.52 182.25 319.25 C 175.00 322.97 167.23 328.98 159.22 330.22 C 151.22 331.47 139.94 338.77 132.00 334.00 Z"/>
</g>
<g fill="#01253A" fill-opacity="0.93" stroke="None">
<path d="
M 491.00 270.00 
C 504.60 273.45 505.77 250.56 492.00 253.00
C 483.74 254.46 482.83 267.93 491.00 270.00 Z"/>
</g>
<g fill="#002439" fill-opacity="0.96" stroke="None">
<path d="
M 413.00 369.00 
C 417.73 370.74 419.10 376.53 425.99 372.99 C 432.88 369.46 432.09 372.06 439.77 368.77 C 447.45 365.48 456.34 360.33 462.92 354.92 C 469.49 349.51 475.55 343.22 480.75 336.75 C 485.95 330.29 482.74 331.36 488.70 325.70 C 494.66 320.03 497.31 302.65 484.00 305.00
C 477.85 313.10 470.09 321.19 464.25 330.25 C 458.41 339.30 446.77 344.26 439.08 350.08 C 431.38 355.89 409.00 354.79 413.00 369.00 Z"/>
</g>
<g fill="#002338" fill-opacity="0.93" stroke="None">
<path d="
M 239.00 368.00 
C 232.50 375.75 231.05 384.90 222.30 391.30 C 213.55 397.71 214.92 415.80 225.97 412.97 C 237.03 410.15 238.79 397.78 244.25 391.25 C 249.70 384.71 259.81 375.94 260.00 368.00
C 260.37 352.74 244.02 362.01 239.00 368.00 Z"/>
</g>
<g fill="#002338" fill-opacity="0.94" stroke="None">
<path d="
M 311.00 368.00 
C 304.73 375.71 302.32 384.80 294.25 391.25 C 286.18 397.70 285.87 414.86 296.97 412.97 C 308.08 411.09 310.20 398.13 315.75 391.75 C 321.30 385.36 331.00 375.86 331.00 368.00
C 331.00 352.71 315.89 361.99 311.00 368.00 Z"/>
</g>
<g fill="#002238" fill-opacity="0.93" stroke="None">
<path d="
M 0.00 400.00 
L 0.00 409.00
C 13.42 419.64 28.55 427.87 42.00 438.00
C 27.93 447.43 12.46 455.89 0.00 467.00
L 0.00 475.00
C 8.13 484.60 18.24 474.57 25.77 469.77 C 33.30 464.97 41.08 458.95 49.00 455.00
C 51.92 464.46 41.48 496.06 57.99 495.99 C 74.51 495.92 64.01 464.50 67.00 455.00
C 74.10 459.12 84.48 465.15 90.77 470.23 C 97.06 475.31 111.65 484.89 115.67 473.67 C 119.69 462.46 103.88 458.99 97.70 453.30 C 91.51 447.61 80.81 443.28 74.00 438.00
C 80.17 432.20 91.66 427.36 97.77 421.77 C 103.88 416.18 120.26 412.63 115.75 401.25 C 111.25 389.86 96.62 400.37 90.25 405.25 C 83.87 410.12 73.88 416.22 67.00 421.00
C 66.86 410.48 67.28 397.48 66.78 387.22 C 66.27 376.97 49.58 376.68 49.00 387.00 C 48.42 397.32 49.44 410.42 49.00 421.00
C 41.27 416.10 33.29 410.26 25.70 405.30 C 18.11 400.35 8.24 390.96 0.00 400.00 Z"/>
</g>
<g fill="#002238" fill-opacity="0.93" stroke="None">
<path d="
M 451.00 512.00 
L 458.00 512.00
C 468.36 502.32 460.59 484.20 463.00 471.00
C 470.80 475.67 479.18 481.43 486.70 486.30 C 494.21 491.18 504.98 502.04 512.00 491.00
L 512.00 484.00
C 501.34 471.38 481.90 465.29 471.00 453.00
C 484.85 444.50 499.85 435.68 512.00 425.00
L 512.00 418.00
C 506.41 406.78 494.79 416.23 487.25 421.25 C 479.70 426.26 471.16 433.06 463.00 437.00
C 460.09 427.50 470.50 395.81 454.01 396.01 C 437.51 396.21 447.97 427.40 445.00 437.00
C 437.65 432.33 427.57 426.17 420.75 421.25 C 413.92 416.33 401.64 406.48 396.78 417.78 C 391.92 429.07 408.26 432.64 414.75 438.25 C 421.25 443.85 431.04 448.67 438.00 454.00
C 431.86 459.74 420.30 464.72 414.23 470.23 C 408.16 475.74 391.66 479.51 396.25 490.75 C 400.83 501.99 415.43 491.63 421.75 486.75 C 428.08 481.88 438.16 475.78 445.00 471.00
C 445.73 483.97 443.19 497.81 447.00 510.00
C 448.54 509.96 450.16 510.90 451.00 512.00 Z"/>
</g>
<g fill="#000000" fill-opacity="0.00" stroke="None">
<path d="
M 0.00 467.00 
C 12.46 455.89 27.93 447.43 42.00 438.00
C 28.55 427.87 13.42 419.64 0.00 409.00
L 0.00 467.00 Z"/>
</g>
<g fill="#000000" fill-opacity="0.00" stroke="None">
<path d="
M 512.00 484.00 
L 512.00 425.00
C 499.85 435.68 484.85 444.50 471.00 453.00
C 481.90 465.29 501.34 471.38 512.00 484.00 Z"/>
</g>
<g fill="#002338" fill-opacity="0.92" stroke="None">
<path d="
M 237.00 453.00 
C 227.15 451.57 224.42 464.30 218.75 469.75 C 213.08 475.21 209.96 484.49 203.92 489.92 C 197.88 495.34 193.15 509.09 204.00 511.00 C 214.85 512.90 216.65 500.03 222.70 494.70 C 228.75 489.37 231.19 479.24 237.25 474.25 C 243.30 469.26 248.08 454.60 237.00 453.00 Z"/>
</g>
<g fill="#002238" fill-opacity="0.92" stroke="None">
<path d="
M 306.00 453.00 
C 295.90 451.54 290.83 465.76 284.77 473.77 C 278.71 481.78 273.10 486.76 267.31 498.31 C 261.51 509.86 280.94 513.69 285.75 502.75 C 290.55 491.80 298.12 485.73 303.25 478.25 C 308.37 470.76 320.68 455.13 306.00 453.00 Z"/>
</g>
<g fill="#000000" fill-opacity="0.00" stroke="None">
<path d="
M 458.00 512.00 
L 512.00 512.00
L 512.00 491.00
C 504.98 502.04 494.21 491.18 486.70 486.30 C 479.18 481.43 470.80 475.67 463.00 471.00
C 460.59 484.20 468.36 502.32 458.00 512.00 Z"/>
</g>
</svg>